Coordinates
version=1
nRows=12
nColumns=28
inDegrees=yes

Units are S.I. units (second, meters, Newtons, ...)
Angles are in degrees.

endheader
time	pelvis_tilt	pelvis_list	pelvis_rotation	pelvis_tx	pelvis_ty	pelvis_tz	hip_flexion_r	hip_adduction_r	hip_rotation_r	knee_angle_r	ankle_angle_r	subtalar_angle_r	mtp_angle_r	hip_flexion_l	hip_adduction_l	hip_rotation_l	knee_angle_l	socket_flexion	socket_adduction	socket_rotation	socket_tx	socket_ty	socket_tz	foot_flex	lumbar_extension	lumbar_bending	lumbar_rotation
      0.64583333	     -0.58689496	     -2.27973357	      4.22877247	      0.04837878	      0.98341264	      0.25874368	     28.02238426	      1.41822790	    -11.63470595	    -11.70646169	      9.98875946	     -9.90584741	      9.95891766	    -16.73340284	     -1.55539167	     19.47566725	     -5.32667959	      6.53288780	     -0.42555085	     -3.74465789	      0.04831749	     -0.00547866	      0.01279135	      7.47573139	    -12.83230631	      2.58985165	     -0.06953722
      0.65000000	     -0.58698991	     -2.28012176	      4.22888085	      0.04837172	      0.98341539	      0.25874676	     28.02265577	      1.41805325	    -11.63466583	    -11.70648744	      9.98883414	     -9.90587974	      9.95909522	    -16.73362781	     -1.55557900	     19.47566625	     -5.32674151	      6.53292031	     -0.42542080	     -3.74456480	      0.04831975	     -0.00547021	      0.01278419	      7.47577730	    -12.83235225	      2.58971926	     -0.06961306
      0.65416667	     -0.54386384	     -2.36419933	      4.22205724	      0.05419606	      0.98261055	      0.25926382	     28.20910902	      1.52694488	    -11.56840144	    -12.57125339	      9.54988876	     -9.96599982	     10.08385655	    -16.86739782	     -1.75845801	     19.43591216	     -5.51966662	      6.72471042	     -0.26781147	     -3.75601386	      0.04936976	     -0.00522554	      0.01132955	      7.38412259	    -12.88962493	      2.75642331	     -0.14702834
      0.65833333	     -0.52960611	     -2.45856451	      4.19580017	      0.06018909	      0.98188710	      0.25966407	     28.38020204	      1.64115403	    -11.51101743	    -13.36931109	      8.97968255	    -10.03855096	     10.21479322	    -17.01191849	     -1.84916753	     19.37801010	     -5.71490180	      6.91204557	     -0.21968119	     -3.79215431	      0.05031181	     -0.00486571	      0.01107451	      7.25129817	    -12.87724770	      2.96638506	     -0.16726408
      0.66250000	     -0.51594429	     -2.54913937	      4.14453379	      0.06623287	      0.98122036	      0.26010294	     28.54494292	      1.76182621	    -11.42428555	    -14.16303554	      8.34383266	    -10.13935244	     10.38227125	    -17.15194226	     -1.92101900	     19.29050477	     -5.91880311	      7.10877009	     -0.16544295	     -3.85374958	      0.05123161	     -0.00448013	      0.01089315	      7.09964860	    -12.86115978	      3.16067295	     -0.14906259
      0.66666667	     -0.50803358	     -2.64288217	      4.06422048	      0.07228570	      0.98059185	      0.26061293	     28.71092457	      1.90102968	    -11.29736934	    -14.95353673	      7.66184715	    -10.29283827	     10.61632847	    -17.27948748	     -1.98923165	     19.18205211	     -6.13335280	      7.31741882	     -0.10157737	     -3.92662174	      0.05210665	     -0.00409124	      0.01070842	      6.92782546	    -12.83418652	      3.35601147	     -0.08364761
      0.67083333	     -0.87344866	     -2.93389707	      3.68541079	      0.07868294	      0.97943270	      0.26161070	     29.07656931	      2.47062628	    -10.39309633	    -15.23633630	      5.64598472	    -12.04671634	     13.51400438	    -17.05966770	     -2.17377052	     18.66654934	     -6.33596779	      7.51279238	     -0.04461678	     -3.80977549	      0.05309156	     -0.00386469	      0.01048817	      6.73941868	    -12.31066599	      3.64735044	      0.76464810
      0.67500000	     -0.73410090	     -3.00462771	      3.62353484	      0.08437056	      0.97908022	      0.26223656	     29.15352228	      2.59411123	    -10.24443003	    -16.13014909	      5.33946265	    -12.07419482	     13.61577403	    -17.15066260	     -2.26053084	     18.66265874	     -6.64712188	      7.81189794	      0.09790312	     -3.88213200	      0.05493611	     -0.00325395	      0.00963489	      6.50396468	    -12.50572822	      3.81186432	      0.62751636
      0.67916667	     -0.64873511	     -3.10586643	      3.54638284	      0.09035560	      0.97878167	      0.26277475	     29.23072894	      2.73573107	    -10.15242284	    -16.94622809	      4.91916366	    -12.10420493	     13.69733144	    -17.25935691	     -2.31860571	     18.61140000	     -6.93688776	      8.09125796	      0.18196287	     -3.99074851	      0.05624550	     -0.00261148	      0.00946751	      6.25856146	    -12.58227582	      4.02202041	      0.58314030
      0.68333333	     -0.58631397	     -3.22609692	      3.42421193	      0.09643483	      0.97846161	      0.26344160	     29.33643814	      2.90509722	    -10.08662542	    -17.77932212	      4.37237865	    -12.18151570	     13.83335023	    -17.36497626	     -2.42534462	     18.47702359	     -7.21672835	      8.36866233	      0.32119132	     -4.15168090	      0.05723666	     -0.00206641	      0.00902501	      5.98447798	    -12.61355199	      4.22086640	      0.60958815
      0.68750000	     -0.52828269	     -3.38156926	      3.38300009	      0.10248285	      0.97826989	      0.26380231	     29.36586205	      3.09083237	     -9.89582319	    -18.48893868	      4.04957681	    -12.19386922	     13.89573146	    -17.42274082	     -2.47119897	     18.49570272	     -7.54122143	      8.67898532	      0.36101814	     -4.24268651	      0.05856231	     -0.00143835	      0.00956268	      5.71256479	    -12.63776065	      4.52489734	      0.66398293
      0.69166667	     -0.49969741	     -3.55584862	      3.13547879	      0.10867012	      0.97796892	      0.26490494	     29.50978345	      3.38292295	     -9.83621837	    -19.31909883	      3.40356063	    -12.39148811	     14.10230175	    -17.47670532	     -2.72613298	     18.27370576	     -7.82631193	      8.97583705	      0.65709621	     -4.46207152	      0.05945344	     -0.00088392	      0.00792405	      5.37978965	    -12.61204039	      4.69341105	      0.83646169
